<svg width="390" height="405" viewBox="0 0 390 405" fill="none" xmlns="http://www.w3.org/2000/svg">
<g opacity="0.6">
<path d="M-13.7315 242.997L-13.6152 243.596L-13.032 243.767L19.938 253.425L20.4758 253.583L20.8895 253.203L47.2829 228.965L47.6967 228.585L47.5894 228.032L41.0127 194.135L40.8964 193.536L40.3132 193.365L7.34317 183.707L6.8054 183.549L6.39164 183.929L-20.0017 208.168L-20.4155 208.548L-20.3082 209.1L-13.7315 242.997Z" stroke="#D8E9E7" stroke-width="2"/>
<path d="M24.7631 285.911L24.8795 286.511L25.4626 286.681L58.4327 296.339L58.9704 296.497L59.3842 296.117L85.7775 271.879L86.1913 271.499L86.084 270.946L79.5073 237.049L79.391 236.45L78.8079 236.279L45.8378 226.621L45.3 226.463L44.8863 226.843L18.4929 251.082L18.0792 251.462L18.1864 252.015L24.7631 285.911Z" stroke="#D8E9E7" stroke-width="2"/>
<path d="M-32.9576 300.088L-32.8412 300.687L-32.2581 300.858L0.711947 310.516L1.24972 310.674L1.66348 310.294L28.0568 286.055L28.4706 285.675L28.3633 285.122L21.7866 251.226L21.6703 250.627L21.0872 250.456L-11.8829 240.798L-12.4207 240.64L-12.8344 241.02L-39.2278 265.258L-39.6415 265.638L-39.5343 266.191L-32.9576 300.088Z" stroke="#D8E9E7" stroke-width="2"/>
<path d="M5.93502 343.436L6.05134 344.035L6.63446 344.206L39.6045 353.864L40.1423 354.022L40.5561 353.642L66.9494 329.403L67.3632 329.024L67.2559 328.471L60.6792 294.574L60.5629 293.975L59.9797 293.804L27.0097 284.146L26.4719 283.988L26.0581 284.368L-0.335206 308.607L-0.748964 308.987L-0.641692 309.539L5.93502 343.436Z" stroke="#D8E9E7" stroke-width="2"/>
<path d="M-52.6372 357.601L-52.5209 358.201L-51.9378 358.372L-18.9677 368.03L-18.43 368.187L-18.0162 367.807L8.37714 343.569L8.7909 343.189L8.68362 342.636L2.10691 308.74L1.99059 308.14L1.40747 307.969L-31.5626 298.311L-32.1004 298.154L-32.5141 298.534L-58.9075 322.772L-59.3212 323.152L-59.214 323.705L-52.6372 357.601Z" fill="#D8E9E7" fill-opacity="0.4" stroke="#D8E9E7" stroke-width="2"/>
<path d="M-103.888 264.486L-113.968 212.533L-73.5147 175.383L-22.9817 190.186L-12.9016 242.139L-53.3545 279.289L-103.888 264.486Z" fill="#D8E9E7" fill-opacity="0.4"/>
<path d="M45.4936 228.624L45.6099 229.223L46.1931 229.394L79.1631 239.052L79.7009 239.21L80.1146 238.83L106.508 214.591L106.922 214.211L106.814 213.659L100.238 179.762L100.121 179.163L99.5383 178.992L66.5683 169.334L66.0305 169.176L65.6167 169.556L39.2234 193.795L38.8096 194.175L38.9169 194.727L45.4936 228.624Z" fill="#D8E9E7" fill-opacity="0.4" stroke="#D8E9E7" stroke-width="2"/>
<path d="M103.474 213.812L103.59 214.411L104.174 214.582L137.144 224.24L137.681 224.398L138.095 224.018L164.488 199.779L164.902 199.399L164.795 198.847L158.218 164.95L158.102 164.351L157.519 164.18L124.549 154.522L124.011 154.364L123.597 154.744L97.2039 178.983L96.7901 179.363L96.8974 179.915L103.474 213.812Z" stroke="#D8E9E7" stroke-width="2"/>
<path d="M84.1909 271.758L84.3072 272.358L84.8903 272.528L117.86 282.187L118.398 282.344L118.812 281.964L145.205 257.726L145.619 257.346L145.512 256.793L138.935 222.896L138.819 222.297L138.236 222.126L105.266 212.468L104.728 212.31L104.314 212.69L77.9207 236.929L77.5069 237.309L77.6142 237.862L84.1909 271.758Z" stroke="#D8E9E7" stroke-width="2"/>
<path d="M346.84 124.726L347.128 124.229L346.844 123.73L329.763 93.6799L329.477 93.1766L328.898 93.174L294.468 93.0191L293.889 93.0165L293.599 93.5172L276.25 123.412L275.962 123.909L276.246 124.408L293.327 154.458L293.614 154.961L294.192 154.964L328.622 155.118L329.201 155.121L329.491 154.62L346.84 124.726Z" stroke="#D8E9E7" stroke-width="2"/>
<path d="M347.435 65.9878L347.724 65.4911L347.44 64.9917L330.358 34.9421L330.072 34.4388L329.494 34.4362L295.064 34.2813L294.485 34.2787L294.194 34.7794L276.846 64.6741L276.558 65.1709L276.842 65.6702L293.923 95.7199L294.209 96.2231L294.788 96.2257L329.218 96.3806L329.797 96.3832L330.087 95.8826L347.435 65.9878Z" stroke="#D8E9E7" stroke-width="2"/>
<path d="M398.117 36.0201L398.405 35.5233L398.122 35.024L381.04 4.9743L380.754 4.47106L380.175 4.46846L345.745 4.31357L345.167 4.31096L344.876 4.81161L327.528 34.7064L327.24 35.2031L327.523 35.7025L344.605 65.7521L344.891 66.2554L345.47 66.258L379.899 66.4128L380.478 66.4155L380.769 65.9148L398.117 36.0201Z" stroke="#D8E9E7" stroke-width="2"/>
<path d="M448.799 65.9878L449.087 65.4911L448.803 64.9917L431.722 34.9421L431.436 34.4388L430.857 34.4362L396.427 34.2813L395.848 34.2787L395.558 34.7794L378.209 64.6741L377.921 65.1709L378.205 65.6702L395.286 95.7199L395.572 96.2231L396.151 96.2257L430.581 96.3806L431.16 96.3832L431.45 95.8826L448.799 65.9878Z" fill="#D8E9E7" fill-opacity="0.4" stroke="#D8E9E7" stroke-width="2"/>
<path d="M424.598 171.118L398.008 216.938L345.238 216.7L319.057 170.643L345.647 124.824L398.417 125.061L424.598 171.118Z" fill="#D8E9E7" fill-opacity="0.4"/>
<path d="M295.56 94.4629L295.849 93.9662L295.565 93.4668L278.483 63.4172L278.197 62.9139L277.619 62.9113L243.189 62.7564L242.61 62.7538L242.319 63.2545L224.971 93.1492L224.683 93.646L224.967 94.1453L242.048 124.195L242.334 124.698L242.913 124.701L277.343 124.856L277.922 124.858L278.212 124.358L295.56 94.4629Z" fill="#D8E9E7" fill-opacity="0.4" stroke="#D8E9E7" stroke-width="2"/>
<path d="M244.879 65.3882L245.167 64.8915L244.883 64.3921L227.802 34.3425L227.516 33.8392L226.937 33.8366L192.507 33.6817L191.928 33.6791L191.638 34.1798L174.29 64.0745L174.001 64.5713L174.285 65.0706L191.367 95.1203L191.653 95.6235L192.231 95.6261L226.661 95.781L227.24 95.7836L227.53 95.283L244.879 65.3882Z" stroke="#D8E9E7" stroke-width="2"/>
<path d="M296.156 35.4204L296.444 34.9237L296.161 34.4243L279.079 4.37469L278.793 3.87145L278.214 3.86885L243.785 3.71396L243.206 3.71135L242.915 4.212L225.567 34.1068L225.279 34.6035L225.562 35.1029L242.644 65.1525L242.93 65.6557L243.509 65.6583L277.938 65.8132L278.517 65.8158L278.808 65.3152L296.156 35.4204Z" stroke="#D8E9E7" stroke-width="2"/>
</g>
</svg>
